<svg width="44" height="44" viewBox="0 0 44 44" fill="none" xmlns="http://www.w3.org/2000/svg">
<path d="M41.1769 36.6114L35.7218 25.7003C37.5074 23.0668 38.5517 19.8918 38.5517 16.4772C38.5517 7.39163 31.1601 0 22.0746 0C12.989 0 5.5974 7.39163 5.5974 16.4772C5.5974 19.8918 6.64174 23.0672 8.42763 25.701L2.97194 36.6114C2.77221 37.0112 2.79369 37.4855 3.02834 37.8655C3.26332 38.2455 3.67824 38.4772 4.12505 38.4772H10.384L14.1395 43.4844C14.3845 43.8107 14.7672 44 15.1707 44C15.7055 44 16.1268 43.6811 16.3238 43.2873L21.4962 32.9429C21.6882 32.9496 21.8809 32.9543 22.0746 32.9543C22.2683 32.9543 22.461 32.9496 22.653 32.9429L27.8253 43.2873C28.0217 43.6804 28.4433 44 28.9784 44C29.3816 44 29.7646 43.8107 30.0093 43.4844L33.7651 38.4772H40.0241C40.4709 38.4772 40.8858 38.2455 41.1205 37.8655C41.3554 37.4855 41.3769 37.0112 41.1769 36.6114ZM14.9508 40.2688L12.0598 36.4147C11.8165 36.0901 11.4344 35.899 11.0286 35.899H6.21071L10.2108 27.8995C12.4821 30.2574 15.447 31.9429 18.774 32.622L14.9508 40.2688ZM8.17552 16.4772C8.17552 8.81329 14.4107 2.57812 22.0746 2.57812C29.7384 2.57812 35.9736 8.81329 35.9736 16.4772C35.9736 24.1411 29.7384 30.3762 22.0746 30.3762C14.4107 30.3762 8.17552 24.1411 8.17552 16.4772ZM33.1202 35.899C32.7147 35.899 32.3327 36.0901 32.089 36.4147L29.1983 40.2688L25.3748 32.622C28.7022 31.9426 31.6673 30.2574 33.9386 27.8988L37.9381 35.8987H33.1202V35.899Z" fill="#F0BE75"/>
<path d="M28.6547 18.6139L32.2546 14.317C32.54 13.9766 32.6299 13.5133 32.4926 13.091C32.3554 12.6684 32.0103 12.3465 31.5796 12.2387L26.1417 10.8785L23.1671 6.12674C22.9314 5.75009 22.5185 5.52148 22.0744 5.52148C21.6303 5.52148 21.2174 5.75009 20.9817 6.12674L18.0078 10.8785L12.5703 12.2387C12.1392 12.3465 11.7941 12.6684 11.6568 13.0907C11.5199 13.5133 11.6095 13.9766 11.8948 14.317L15.4948 18.6139L15.1074 24.2055C15.0769 24.6486 15.2763 25.0763 15.6355 25.3375C16.181 25.7339 16.7359 25.5463 16.8752 25.4902L22.0744 23.3948L27.2736 25.4905C27.6855 25.6564 28.1538 25.5986 28.513 25.3378C28.8725 25.0766 29.0719 24.649 29.0414 24.2058L28.6547 18.6139ZM26.3448 17.3564C26.1306 17.6122 26.0238 17.9405 26.047 18.2731L26.3273 22.3293L22.5565 20.8093C22.1385 20.6408 21.7719 20.7368 21.5927 20.8093L17.8218 22.3293L18.1028 18.2735C18.1257 17.9408 18.0189 17.6122 17.8047 17.3564L15.1937 14.2401L19.1378 13.2535C19.4614 13.1726 19.7407 12.9695 19.9176 12.6869L22.0747 9.2403L24.2322 12.6869C24.4092 12.9695 24.6885 13.1726 25.0121 13.2535L28.9561 14.2401L26.3448 17.3564Z" fill="#F0BE75"/>
</svg>
