<svg width="44" height="44" viewBox="0 0 44 44" fill="none" xmlns="http://www.w3.org/2000/svg">
<g clip-path="url(#clip0_1978_8087)">
<mask id="mask0_1978_8087" style="mask-type:luminance" maskUnits="userSpaceOnUse" x="-1" y="0" width="45" height="45">
<path d="M-0.000536919 0.00439835H43.9994V44.0044H-0.000536919V0.00439835Z" fill="white"/>
</mask>
<g mask="url(#mask0_1978_8087)">
<path d="M15.9408 14.1917C17.0742 10.9375 18.938 7.88066 21.533 5.27632L21.9998 4.80796" stroke="#F0BE75" stroke-width="2.34374" stroke-miterlimit="10"/>
<path d="M21.9998 4.80796L21.533 5.27632C18.938 7.88066 17.0742 10.9375 15.9408 14.1917" stroke="#F0BE75" stroke-width="2.34374" stroke-miterlimit="10"/>
<path d="M28.0587 14.1917C26.9254 10.9375 25.0616 7.88066 22.4665 5.27632L21.9998 4.80796" stroke="#F0BE75" stroke-width="2.34374" stroke-miterlimit="10"/>
<path d="M21.9998 4.80796L22.4665 5.27632C25.0616 7.88066 26.9254 10.9375 28.0587 14.1917" stroke="#F0BE75" stroke-width="2.34374" stroke-miterlimit="10"/>
<path d="M37.3217 14.1917C34.4767 8.6217 28.6838 4.80796 22 4.80796C15.3163 4.80796 9.52339 8.6217 6.67834 14.1917" stroke="#F0BE75" stroke-width="2.34374" stroke-miterlimit="10"/>
<path d="M15.9409 29.8126C17.0742 33.0669 18.938 36.1237 21.5331 38.7279L21.9998 39.1963" stroke="#F0BE75" stroke-width="2.34374" stroke-miterlimit="10"/>
<path d="M21.9998 39.1963L21.5331 38.7279C18.938 36.1236 17.0742 33.0668 15.9409 29.8126" stroke="#F0BE75" stroke-width="2.34374" stroke-miterlimit="10"/>
<path d="M28.0587 29.8126C26.9253 33.0669 25.0615 36.1237 22.4665 38.7279L21.9997 39.1963" stroke="#F0BE75" stroke-width="2.34374" stroke-miterlimit="10"/>
<path d="M21.9997 39.1963L22.4665 38.7279C25.0615 36.1236 26.9253 33.0668 28.0587 29.8126" stroke="#F0BE75" stroke-width="2.34374" stroke-miterlimit="10"/>
<path d="M37.3218 29.8126C34.4767 35.3826 28.6839 39.1963 22.0001 39.1963C15.3163 39.1963 9.52342 35.3826 6.67837 29.8126" stroke="#F0BE75" stroke-width="2.34374" stroke-miterlimit="10"/>
<path d="M42.7108 28.5618C42.7108 29.2521 42.1511 29.8118 41.4608 29.8118H2.53893C1.84858 29.8118 1.28893 29.2521 1.28893 28.5618V15.4408C1.28893 14.7505 1.84858 14.1908 2.53893 14.1908H41.4608C42.1511 14.1908 42.7108 14.7505 42.7108 15.4408V28.5618Z" stroke="#F0BE75" stroke-width="2.34374" stroke-miterlimit="10"/>
<path d="M12.7027 22.4117L9.64708 17.5488L7.98788 17.5485V25.9812H9.74728V21.0153L12.803 25.8782H14.4622V17.5362H12.7027V22.4117Z" fill="#F0BE75"/>
<path d="M15.511 20.8794V22.6389V25.9512H20.0618V24.1917H17.2705V22.6389H19.856V20.8794H17.2705V19.3266H20.0618V17.5672H15.511V20.8794Z" fill="#F0BE75"/>
<path d="M34.0063 20.986C33.1926 20.6859 32.4346 20.3593 32.1939 20.254C32.0341 20.1216 32.0396 19.9395 32.0506 19.8631C32.0664 19.7534 32.1466 19.4853 32.5514 19.3632C33.4789 19.0839 34.3427 19.774 34.3514 19.7811L34.346 19.7766L35.4781 18.4298C35.4144 18.3761 33.8931 17.1216 32.044 17.6786C31.1044 17.9616 30.4396 18.7028 30.3091 19.613C30.1863 20.4681 30.5569 21.2906 31.2764 21.7597L31.3348 21.7978L31.3984 21.8261C31.4372 21.8434 32.3592 22.2538 33.3974 22.6368C33.6179 22.7182 34.331 23.0207 34.2458 23.4979C34.1823 23.8537 33.7443 24.2217 33.1213 24.2217C32.469 24.2217 31.8418 23.9593 31.4435 23.5197L30.1397 24.7012C30.8769 25.5146 31.9635 25.9812 33.1213 25.9812C34.5516 25.9812 35.753 25.0669 35.9779 23.8072C36.1475 22.8575 35.7186 21.6176 34.0063 20.986Z" fill="#F0BE75"/>
<path d="M27.3562 21.9164L26.1247 17.6453L24.5081 17.6432L23.273 21.9137L22.3867 17.4325L20.6607 17.774L22.2752 25.936L23.9447 25.9247L25.3148 21.1872L26.684 25.9357L28.3526 25.9243L29.9719 17.7874L28.2462 17.444L27.3562 21.9164Z" fill="#F0BE75"/>
</g>
</g>
<defs>
<clipPath id="clip0_1978_8087">
<rect width="44" height="44" fill="white"/>
</clipPath>
</defs>
</svg>
